<?xml version="1.0" encoding="UTF-8" standalone="no"?>
<!-- Created with Inkscape (http://www.inkscape.org/) -->

<svg
   width="16.0px"
   height="16.0px"
   viewBox="0 0 16.0 16.0"
   version="1.1"
   id="SVGRoot"
   sodipodi:docname="addasset.svg"
   inkscape:version="1.2-dev (7be2d9a5, 2021-09-13)"
   xmlns:inkscape="http://www.inkscape.org/namespaces/inkscape"
   xmlns:sodipodi="http://sodipodi.sourceforge.net/DTD/sodipodi-0.dtd"
   xmlns:xlink="http://www.w3.org/1999/xlink"
   xmlns="http://www.w3.org/2000/svg"
   xmlns:svg="http://www.w3.org/2000/svg">
  <sodipodi:namedview
     id="namedview40066"
     pagecolor="#ffffff"
     bordercolor="#666666"
     borderopacity="1.0"
     inkscape:pageshadow="2"
     inkscape:pageopacity="0.0"
     inkscape:pagecheckerboard="0"
     inkscape:document-units="px"
     showgrid="true"
     inkscape:zoom="62.273919"
     inkscape:cx="8.4786698"
     inkscape:cy="7.3465747"
     inkscape:window-width="2880"
     inkscape:window-height="1557"
     inkscape:window-x="-8"
     inkscape:window-y="-8"
     inkscape:window-maximized="1"
     inkscape:current-layer="layer1"
     inkscape:lockguides="true">
    <inkscape:grid
       type="xygrid"
       id="grid40072" />
  </sodipodi:namedview>
  <defs
     id="defs40061">
    <linearGradient
       id="linear-gradient-18"
       x1="30.379999"
       y1="21.959999"
       x2="30.719999"
       y2="24.43"
       gradientTransform="matrix(1.1445121,-0.3330964,0.33381602,1.1420448,-39.953908,-9.7628233)"
       xlink:href="#linear-gradient-14" />
    <linearGradient
       id="linear-gradient-14"
       x1="14.23"
       y1="25.309999"
       x2="15.69"
       y2="15.66"
       gradientUnits="userSpaceOnUse">
      <stop
         offset="0"
         stop-color="#e1ab5b"
         id="stop29490" />
      <stop
         offset="1"
         stop-color="#b16a10"
         id="stop29492" />
    </linearGradient>
    <linearGradient
       id="linear-gradient-19"
       x1="38.900002"
       y1="25.629999"
       x2="35.740002"
       y2="23.57"
       xlink:href="#linear-gradient-14"
       gradientTransform="matrix(1.1922,0,0,1.18963,-36.699202,-18.411433)" />
    <linearGradient
       inkscape:collect="always"
       xlink:href="#linear-gradient-20"
       id="linearGradient29907"
       gradientUnits="userSpaceOnUse"
       x1="35.240002"
       y1="25.4"
       x2="35.209999"
       y2="21.98"
       gradientTransform="matrix(1.1922,0,0,1.18963,-36.699202,-18.411433)" />
    <linearGradient
       id="linear-gradient-20"
       x1="35.240002"
       y1="25.4"
       x2="35.209999"
       y2="21.98"
       gradientUnits="userSpaceOnUse">
      <stop
         offset="0"
         stop-color="#7b4706"
         id="stop29500" />
      <stop
         offset="1"
         stop-color="#b16a10"
         stop-opacity="0"
         id="stop29502" />
    </linearGradient>
    <linearGradient
       inkscape:collect="always"
       xlink:href="#linear-gradient-21"
       id="linearGradient29909"
       gradientUnits="userSpaceOnUse"
       x1="35.262451"
       y1="21.967396"
       x2="36.001221"
       y2="26.209969"
       gradientTransform="matrix(1.1922,0,0,1.18963,-36.699202,-18.411433)" />
    <linearGradient
       id="linear-gradient-21"
       x1="35.68"
       y1="21.09"
       x2="35.220001"
       y2="25.940001"
       gradientUnits="userSpaceOnUse">
      <stop
         offset="0"
         stop-color="#e8bc7b"
         id="stop29505" />
      <stop
         offset="1"
         stop-color="#b16a10"
         id="stop29507" />
    </linearGradient>
    <linearGradient
       id="linear-gradient-22"
       x1="33.055508"
       y1="24.344952"
       x2="34.630001"
       y2="27.049999"
       xlink:href="#linear-gradient-14"
       gradientTransform="matrix(1.1922,0,0,1.18963,-36.699202,-18.411433)" />
    <linearGradient
       id="linear-gradient-23"
       x1="34.439999"
       y1="28.01"
       x2="34.139999"
       y2="25"
       xlink:href="#linear-gradient-20"
       gradientTransform="matrix(1.1922,0,0,1.18963,-37.598455,-18.652304)" />
    <linearGradient
       id="linear-gradient-24"
       x1="35.650002"
       y1="27.110001"
       x2="33.669998"
       y2="24.549999"
       xlink:href="#linear-gradient-20"
       gradientTransform="matrix(1.1922,0,0,1.18963,-36.699202,-18.411433)" />
    <linearGradient
       id="linear-gradient-25"
       x1="28.98"
       y1="21.82"
       x2="29.440001"
       y2="25.15"
       gradientTransform="matrix(1.1989044,-0.00116483,-0.04452884,1.1830206,-32.623865,-20.798124)"
       xlink:href="#linear-gradient-14" />
    <linearGradient
       id="linear-gradient-26"
       x1="28.209999"
       y1="26.99"
       x2="29.719999"
       y2="25.209999"
       gradientTransform="matrix(1.1989044,-0.00116483,-0.04452884,1.1830206,-32.623865,-20.798124)"
       xlink:href="#linear-gradient-20" />
    <linearGradient
       inkscape:collect="always"
       xlink:href="#linear-gradient-27"
       id="linearGradient29911"
       gradientUnits="userSpaceOnUse"
       gradientTransform="matrix(1.1989044,-0.00116483,-0.04452884,1.1830206,-32.623865,-20.798124)"
       x1="29.41"
       y1="23.98"
       x2="29"
       y2="26.93" />
    <linearGradient
       id="linear-gradient-27"
       x1="29.41"
       y1="23.98"
       x2="29"
       y2="26.93"
       gradientTransform="rotate(-16.260205,24.08,13.19)"
       gradientUnits="userSpaceOnUse">
      <stop
         offset="0"
         stop-color="#e7bb79"
         id="stop29515" />
      <stop
         offset="1"
         stop-color="#e1ab5b"
         stop-opacity="0"
         id="stop29517" />
    </linearGradient>
    <linearGradient
       id="linear-gradient-28"
       x1="36.59"
       y1="23.690001"
       x2="35.130001"
       y2="25.370001"
       gradientTransform="matrix(1.1445121,-0.3330964,0.33381602,1.1420448,-39.953908,-9.7628233)"
       xlink:href="#linear-gradient-14" />
    <linearGradient
       id="linear-gradient-29"
       x1="36.490002"
       y1="32.009998"
       x2="35.830002"
       y2="35.900002"
       gradientTransform="matrix(0.94,-0.3,0.27,0.95,-8.21,0.46)"
       gradientUnits="userSpaceOnUse">
      <stop
         offset="0"
         stop-color="#7b4706"
         id="stop29521" />
      <stop
         offset="1"
         stop-color="#7e4b0b"
         stop-opacity="0"
         id="stop29523" />
    </linearGradient>
    <linearGradient
       id="linear-gradient-30"
       x1="35.919998"
       y1="23.9"
       x2="34.75"
       y2="27.610001"
       xlink:href="#linear-gradient-27"
       gradientTransform="matrix(1.1922,0,0,1.18963,-36.699202,-18.411433)" />
    <linearGradient
       id="linear-gradient-31"
       x1="33.970001"
       y1="17.42"
       x2="32.5"
       y2="22.639999"
       gradientTransform="matrix(1.1445121,-0.3330964,0.33381602,1.1420448,-39.953908,-9.7628233)"
       xlink:href="#linear-gradient-14" />
    <linearGradient
       id="linear-gradient-32"
       x1="29.98"
       y1="22.559999"
       x2="30.700001"
       y2="22.35"
       gradientTransform="matrix(1.1445121,-0.3330964,0.33381602,1.1420448,-39.953908,-9.7628233)"
       xlink:href="#linear-gradient-29" />
    <linearGradient
       id="linear-gradient-33"
       x1="-584"
       y1="-150.69"
       x2="-583.28003"
       y2="-150.91"
       gradientTransform="matrix(-1.1445121,-0.32120009,-0.32189401,1.1420448,-711.26983,-5.3373996)"
       xlink:href="#linear-gradient-29" />
    <linearGradient
       id="linear-gradient-34"
       x1="33.48"
       y1="19.59"
       x2="32.59"
       y2="22.209999"
       xlink:href="#linear-gradient-27"
       gradientTransform="matrix(1.1922,0,0,1.18963,-36.699202,-18.411433)" />
    <linearGradient
       id="linear-gradient-35"
       x1="31.42"
       y1="17.959999"
       x2="31.16"
       y2="19.360001"
       gradientTransform="matrix(1.1445121,-0.3330964,0.33381602,1.1420448,-39.953908,-9.7628233)"
       xlink:href="#linear-gradient-14" />
    <linearGradient
       id="linear-gradient-36"
       x1="31.370001"
       y1="18.290001"
       x2="31.030001"
       y2="19.92"
       xlink:href="#linear-gradient-27"
       gradientTransform="matrix(1.1922,0,0,1.18963,-36.699202,-18.411433)" />
    <linearGradient
       id="linear-gradient-37"
       x1="35.52"
       y1="18.870001"
       x2="35.389999"
       y2="21.110001"
       gradientTransform="matrix(1.1445121,-0.3330964,0.33381602,1.1420448,-39.953908,-9.7628233)"
       xlink:href="#linear-gradient-14" />
    <linearGradient
       id="linear-gradient-38"
       x1="35.529999"
       y1="19.540001"
       x2="35.220001"
       y2="21.51"
       xlink:href="#linear-gradient-27"
       gradientTransform="matrix(1.1922,0,0,1.18963,-36.699202,-18.411433)" />
    <linearGradient
       id="linear-gradient-39"
       x1="32.779999"
       y1="22.18"
       x2="31.530001"
       y2="24.66"
       gradientTransform="matrix(1.1445121,-0.3330964,0.33381602,1.1420448,-39.953908,-9.7628233)"
       xlink:href="#linear-gradient-21" />
    <linearGradient
       id="linear-gradient-40"
       x1="32.720001"
       y1="22.25"
       x2="32.360001"
       y2="23.02"
       gradientTransform="matrix(1.1445121,-0.3330964,0.33381602,1.1420448,-40.254075,-9.8588404)"
       gradientUnits="userSpaceOnUse">
      <stop
         offset="0"
         stop-color="#f1d5ac"
         id="stop29536" />
      <stop
         offset="1"
         stop-color="#eecda0"
         stop-opacity="0"
         id="stop29538" />
    </linearGradient>
    <linearGradient
       id="linear-gradient-41"
       x1="39.290001"
       y1="21.84"
       x2="38.200001"
       y2="26.09"
       xlink:href="#linear-gradient-14"
       gradientTransform="matrix(1.1922,0,0,1.18963,-36.699202,-18.411433)" />
    <linearGradient
       id="linear-gradient-42"
       x1="36.580002"
       y1="26.99"
       x2="40.07"
       y2="23.440001"
       xlink:href="#linear-gradient-20"
       gradientTransform="matrix(1.1922,0,0,1.18963,-36.699202,-18.411433)" />
    <linearGradient
       id="linear-gradient-43"
       x1="33.32"
       y1="26.309999"
       x2="35.119999"
       y2="28.559999"
       xlink:href="#linear-gradient-14"
       gradientTransform="matrix(1.1922,0,0,1.18963,-36.699202,-18.411433)" />
    <linearGradient
       id="linear-gradient-44"
       x1="40.290001"
       y1="24.09"
       x2="39.259998"
       y2="26.58"
       xlink:href="#linear-gradient-14"
       gradientTransform="matrix(1.1922,0,0,1.18963,-36.699202,-18.411433)" />
    <linearGradient
       id="linear-gradient-45"
       x1="40.27"
       y1="24.379999"
       x2="39.43"
       y2="26.98"
       xlink:href="#linear-gradient-14"
       gradientTransform="matrix(1.1922,0,0,1.18963,-36.699202,-18.411433)" />
    <linearGradient
       id="linear-gradient-46"
       x1="39.720001"
       y1="26.889999"
       x2="39.349998"
       y2="24.93"
       xlink:href="#linear-gradient-20"
       gradientTransform="matrix(1.1922,0,0,1.18963,-36.699202,-18.411433)" />
    <linearGradient
       id="linearGradient2770">
      <stop
         style="stop-color:black;stop-opacity:1;"
         offset="0"
         id="stop2772" />
      <stop
         style="stop-color:#2e3436;stop-opacity:1;"
         offset="1"
         id="stop2774" />
    </linearGradient>
  </defs>
  <g
     inkscape:label="Layer 1"
     inkscape:groupmode="layer"
     id="layer1">
    <path
       class="cls-30"
       d="M 3.5256265,12.102576 A 3.8269621,3.8187122 0 0 1 2.0592208,9.6043526 5.1026161,5.0916164 0 0 1 2.5480227,7.1537149 12.518101,12.491114 0 0 1 4.7655152,6.3566628"
       id="path29667"
       style="isolation:isolate;fill:url(#linear-gradient-18);stroke-width:1" />
    <path
       class="cls-31"
       d="m 4.7655152,6.3566628 a 12.518101,12.491114 0 0 0 -2.2174925,0.7970521 5.1026161,5.0916164 0 0 0 -0.4888019,2.4506377 3.8269621,3.8187122 0 0 0 1.4664057,2.4982234 3.6838981,3.6759567 0 0 0 2.5632306,0.713778 3.016266,3.0097638 0 0 0 2.2651801,-2.069956 3.8865721,3.8781938 0 0 0 0,-2.1889198 5.0549281,5.0440311 0 0 0 -1.2518106,-2.1651258 12.208128,12.181811 0 0 0 -2.3844001,0"
       id="path29669"
       style="isolation:isolate;fill:url(#linear-gradient-19);stroke-width:1" />
    <path
       class="cls-32"
       d="m 4.7655152,6.3566628 a 12.518101,12.491114 0 0 0 -2.2174925,0.7970521 5.1026161,5.0916164 0 0 0 -0.4888019,2.4506377 3.8269621,3.8187122 0 0 0 1.4664057,2.4982234 3.6838981,3.6759567 0 0 0 2.5632306,0.713778 3.016266,3.0097638 0 0 0 2.2651801,-2.069956 3.8865721,3.8781938 0 0 0 0,-2.1889198 5.0549281,5.0440311 0 0 0 -1.2518106,-2.1651258 12.208128,12.181811 0 0 0 -2.3844001,0"
       id="path29671"
       style="isolation:isolate;fill:url(#linearGradient29907);stroke-width:1" />
    <path
       class="cls-33"
       d="m 3.6806121,11.174665 v 0 a 2.7062941,2.7004601 0 0 0 2.5155432,0.820844 2.2055701,2.2008155 0 0 0 1.5498599,-1.855822 3.5766001,3.5688899 0 0 0 -0.333816,-1.1896305 2.1459601,2.141334 0 0 0 -4.1130908,1.0825625 4.6018922,4.5919717 0 0 0 0.3815037,1.142046 z"
       id="path29673"
       style="isolation:isolate;fill:url(#linearGradient29909);stroke-width:1" />
    <path
       class="cls-34"
       d="m 4.5986065,11.483969 a 1.8836761,1.8796153 0 0 0 -2.0863494,0.118963 1.90752,1.903408 0 0 0 0.810695,2.66477 3.862728,3.8544011 0 0 0 2.8612801,0 4.1250121,4.1161198 0 0 0 -0.4053475,-0.880325 0.45303601,0.4520594 0 0 0 0.1430637,-0.618608 3.1235641,3.1168306 0 0 0 -1.3233419,-1.2848 z"
       id="path29677"
       style="isolation:isolate;fill:url(#linear-gradient-22);stroke-width:1" />
    <path
       class="cls-36"
       d="M 6.219999,14.303392 A 4.0057921,3.9971567 0 0 1 5.3973809,14.529421 L 5.1947065,13.577718 A 2.0863501,2.0818524 0 0 0 4.6224503,12.197746 c 0.083451,0 0.4530362,0.309304 0.7272431,0.214134 0.2742056,-0.09517 0.1311419,-0.166549 0.095377,-0.3212 a 2.8612801,2.8551119 0 0 1 0.5245687,0.713777 0.44111401,0.44016309 0 0 1 -0.1549869,0.618608 4.1250121,4.1161198 0 0 1 0.4053488,0.880327 z"
       id="path29681"
       style="isolation:isolate;fill:url(#linear-gradient-24);stroke-width:1" />
    <path
       class="cls-37"
       d="M 2.6998836,8.0066512 A 1.3653573,1.4219569 55.105613 0 1 2.0479864,8.8017725 C 1.9796735,8.7819637 1.7750358,9.0589808 1.7220858,9.2554058 1.5139431,9.88022 1.8558657,10.427843 1.9282753,10.810112 A 0.88689877,0.92366431 55.105605 0 1 1.3107522,11.876811 0.93357765,0.97227822 55.105604 0 1 0.58982007,11.792337 0.98025653,1.0208921 55.105611 0 1 0.15675567,11.14354 3.8976867,4.0592615 55.105607 0 1 0.93915007,7.6331216 2.3339441,2.4306956 55.105597 0 1 2.7179214,6.903152 l 0.1480032,0.042917 a 1.9255039,2.0053239 55.105616 0 1 -0.166041,1.0605822 z"
       id="path29685"
       style="isolation:isolate;fill:url(#linear-gradient-25);stroke-width:1"
       inkscape:transform-center-x="0.99970321"
       inkscape:transform-center-y="1.8336434" />
    <path
       class="cls-38"
       d="M 2.6998836,8.0066512 A 1.3653573,1.4219569 55.105613 0 1 2.0479864,8.8017725 C 1.9796735,8.7819637 1.7750358,9.0589808 1.7220858,9.2554058 1.5139431,9.88022 1.8558657,10.427843 1.9282753,10.810112 A 0.88689877,0.92366431 55.105605 0 1 1.3107522,11.876811 0.93357765,0.97227822 55.105604 0 1 0.58982007,11.792337 0.98025653,1.0208921 55.105611 0 1 0.15675567,11.14354 3.8976867,4.0592615 55.105607 0 1 0.93915007,7.6331216 2.3339441,2.4306956 55.105597 0 1 2.7179214,6.903152 l 0.1480032,0.042917 a 1.9255039,2.0053239 55.105616 0 1 -0.166041,1.0605822 z"
       id="path29687"
       style="isolation:isolate;fill:url(#linear-gradient-26);stroke-width:1"
       inkscape:transform-center-x="0.99970321"
       inkscape:transform-center-y="1.8336434" />
    <path
       class="cls-39"
       d="M 2.7445077,6.935777 2.6763884,7.1402612 A 0.18671553,0.19445565 55.105597 0 0 2.4298962,7.2805653 0.28007329,0.29168346 55.105621 0 0 2.1038054,7.5099066 0.23339441,0.24306956 55.105597 0 0 1.8156217,7.7004096 1.1669721,1.2153478 55.105597 0 0 1.5880525,7.7839129 0.23339441,0.24306956 55.105597 0 0 1.4630098,7.9718908 0.30341274,0.31599042 55.105597 0 0 1.2091073,8.3218252 0.50179799,0.52259954 55.105611 0 0 0.91341847,8.6098136 c 0,0 -0.018922,0.056801 -0.030276,0.090886 -0.011358,0.034084 -0.079472,0.2385655 -0.1021789,0.3067274 a 0.31508246,0.3281439 55.105619 0 0 -0.1438072,0.4316889 0.24506413,0.25522303 55.105597 0 0 -0.2008527,0.2656568 1.085284,1.1302734 55.105577 0 0 0.0190786,0.1301084 c -0.045413,0.1363242 -0.2008525,0.2656579 -0.1324547,0.3976099 0.068409,0.131956 0.09108,0.02641 0.079788,0.135255 -0.011297,0.108843 -0.052982,0.159043 -0.075689,0.227206 -0.022705,0.06816 0.068398,0.131952 0.095022,0.201959 0.026613,0.07 -0.075689,0.227205 -0.018706,0.318474 0.056986,0.09126 0.09108,0.02641 0.068398,0.131954 -0.02267,0.105545 0,0 -0.022705,0.06816 a 0.21005497,0.2187626 55.105597 0 0 0.1292398,0.286631 0.36176134,0.37675781 55.105597 0 0 0.0570826,0.203417 A 0.98025653,1.0208921 55.105611 0 1 0.20229487,11.156745 3.8976867,4.0592615 55.105607 0 1 0.98468877,7.6463266 2.3339441,2.4306956 55.105597 0 1 2.7445077,6.935777 Z"
       id="path29689"
       style="isolation:isolate;fill:url(#linearGradient29911);stroke-width:1"
       inkscape:transform-center-x="1.0451298"
       inkscape:transform-center-y="1.7968825" />
    <path
       class="cls-40"
       d="m 6.3869066,5.7142632 a 2.6824501,2.6766675 0 0 1 2.1340386,0 4.8403322,4.8298977 0 0 1 2.5274638,2.3792598 c 0.333816,0.6780891 0.250362,1.1896304 -0.274206,1.4632447 A 1.1922,1.18963 0 0 1 9.403172,9.0928125 5.0310841,5.0202385 0 0 0 8.3778812,7.7009446 1.478328,1.4751411 0 0 0 7.4121992,7.2845744 c 0,0 -0.4768802,0 -0.8345402,-0.5472297 A 1.31142,1.308593 0 0 1 6.3869066,5.7142632 Z"
       id="path29693"
       style="isolation:isolate;fill:url(#linear-gradient-28);stroke-width:1" />
    <path
       class="cls-41"
       d="m 2.3381284,7.3286171 c 0.3456003,0.4376524 0.7147941,0.6974268 0.9895265,0.9754965 0.218425,7.18e-4 0.3589506,0.2623655 0.5672886,0.1811714 0.1647772,-0.053202 0.2426088,0.135715 0.3797928,0.1281324 0.1476409,-0.1085165 0.2947848,0.011261 0.4512901,0 0.1598394,-0.056083 0.317613,-0.012373 0.4795005,0 0.1183565,0.025446 0.2057416,-0.061085 0.3217438,-0.058828 0.1323761,0.010131 0.2194604,0.09945 0.2979324,-0.046426 C 5.9826043,8.3361281 6.2652011,8.5467624 6.3100679,8.2996908 6.4167497,8.1117878 6.6559097,8.2403929 6.7963812,8.1404244 6.85929,8.0019611 6.9358791,7.8255277 7.0961347,7.8306776 7.0944823,7.6362186 7.3651865,7.591139 7.3385375,7.3969708 7.4796346,7.2850416 7.4908234,7.0677142 7.6788232,7.0089008 c 0.0888,-0.098904 0.131075,-0.2239014 0.254104,-0.2873484 -0.0149,-0.1439252 0.09665,-0.2492958 0.0831,-0.3926078 -0.0074,-0.079879 0.02336,-0.1709441 -0.0085,-0.2437879 -0.197562,-0.060317 -0.373564,0.0051 -0.5120583,-0.01244 L 2.7498885,6.8763384 2.302373,7.0312097"
       id="path29695"
       style="isolation:isolate;fill:#000000;fill-opacity:0.147287;stroke-width:1"
       sodipodi:nodetypes="ccscssscccccccccccc" />
    <path
       class="cls-42"
       d="m 10.631139,9.3783233 a 0.81069602,0.80894839 0 0 1 -0.500723,0.059482 v 0 c 0,0 0,0 0.0596,0 a 0.28612801,0.28551119 0 0 0 0.166908,-0.059482 c 0,0 0,-0.059482 0,-0.071373 h 0.08345 c 0.131142,0 0.107293,-0.1665479 0.11922,-0.1784444 v 0 A 0.190752,0.1903408 0 0 0 10.714588,8.98575 0.202674,0.20223709 0 0 0 10.654983,8.7835136 v 0 c 0,0 0,0 0,0 a 0.28612801,0.28551119 0 0 0 -0.07153,-0.3806815 v 0 a 0.154986,0.1546519 0 0 1 0,-0.071383 A 0.29805001,0.2974075 0 0 0 10.392693,8.0697302 0.28612801,0.28551119 0 0 0 10.178097,7.7604264 0.32189401,0.32120009 0 0 0 9.939658,7.4154341 c 0,0 0,0 -0.07154,0 a 0.083454,0.0832741 0 0 1 0,-0.071373 0.27420601,0.2736149 0 0 0 -0.226517,-0.2617189 c 0,0 0,0 -0.08345,0 -0.08345,0 0,0 0,-0.071373 A 0.30997201,0.3093038 0 0 0 9.152811,6.7968261 0.38150401,0.38068159 0 0 0 8.6997752,6.4875223 0.30997201,0.3093038 0 0 0 8.3182702,6.3090779 0.143064,0.1427556 0 0 0 8.1155962,6.2258034 v 0 L 8.0440612,6.14253 h -0.08345 c -0.119221,0 -0.262283,0 -0.333815,0.071373 L 7.0783826,5.8927076 a 3.3143161,3.3071714 0 0 1 1.4544836,0.1427559 4.5422821,4.5324902 0 0 1 2.3844008,2.2008154 c 0.29805,0.4044738 0.202674,0.9041185 -0.286128,1.1420444 z"
       id="path29697"
       style="isolation:isolate;fill:url(#linear-gradient-30);stroke-width:1" />
    <path
       class="cls-43"
       d="M 8.2348172,0.51558044 A 1.597548,1.5941042 0 0 0 6.5538153,0.23006855 1.31142,1.308593 0 0 0 5.8146503,1.1103951 3.4454581,3.4380306 0 0 0 4.6939828,0.94384721 3.5766001,3.5688899 0 0 0 3.5733152,1.1579801 v 0 A 1.1922,1.18963 0 0 0 2.7983846,0.30144652 1.6094701,1.6060005 0 0 0 1.1412264,0.64643882 1.6333141,1.6297931 0 0 0 0.66434637,2.2286475 1.096824,1.0944596 0 0 0 1.6538733,3.0851811 3.266628,3.2595861 0 0 0 1.439277,4.2748104 3.3262381,3.3190677 0 1 0 7.8175472,3.0019066 1.084902,1.0825632 0 0 0 8.7713072,2.12158 1.6333141,1.6297931 0 0 0 8.2348172,0.51558044 Z"
       id="path29701"
       style="isolation:isolate;stroke-width:1" />
    <ellipse
       class="cls-44"
       cx="4.7655149"
       cy="4.2629137"
       id="circle29703"
       style="isolation:isolate;fill:url(#linear-gradient-31);stroke-width:1"
       rx="3.3262382"
       ry="3.3190675" />
    <path
       class="cls-45"
       d="m 3.358719,7.1537149 a 0.166908,0.16654819 0 0 1 0,0.1070675 v 0 A 3.3143161,3.3071714 0 0 1 1.4511989,4.3461884 v 0 a 0.28612801,0.28551119 0 0 1 0,-0.095174 v 0 c 0,0 0.083451,0 0.083451,0.095174 0,0.095174 0,0.1070664 0,0.1427559 0,0.035692 0.071536,0.083273 0.083451,0.1308595 a 0.154986,0.1546519 0 0 1 0,0.071373 0.30997201,0.3093038 0 0 0 0.071536,0.2736153 0.11922,0.118963 0 0 1 0.059609,0 c 0.083451,0.071373 0,0.2141329 0.1430638,0.2736154 0.143065,0.059483 0.2145963,0 0.3218944,0 A 0.35766001,0.35688899 0 0 1 2.345346,5.4049554 5.0191621,5.0083422 0 0 0 3.060666,6.6897558 0.91799402,0.91601508 0 0 1 3.3587166,7.153711 Z"
       id="path29705"
       style="isolation:isolate;fill:url(#linear-gradient-32);stroke-width:1" />
    <path
       class="cls-46"
       d="m 6.219999,7.129923 a 0.166908,0.16654819 0 0 0 0,0.1070664 v 0 a 3.3143161,3.3071714 0 0 0 1.8717542,-2.938386 v 0 a 0.154986,0.1546519 0 0 0 0,-0.095174 v 0 c 0,0 -0.08345,0 -0.08345,0.095174 a 0.38150401,0.38068159 0 0 1 0,0.1546514 c 0,0 -0.07153,0.071383 -0.08345,0.1308595 -0.01193,0.059482 0,0 0,0.059482 a 0.38150401,0.38068159 0 0 1 -0.07153,0.2855119 h -0.07153 c -0.07153,0.071373 0,0.2260293 -0.143064,0.2855108 -0.1430652,0.059482 -0.2026752,0 -0.3099731,0 A 0.28612801,0.28551119 0 0 0 7.1976016,5.3930639 4.9476302,4.9369644 0 0 1 6.5061254,6.6778642 0.75108602,0.74946689 0 0 0 6.2199979,7.129924 Z"
       id="path29707"
       style="isolation:isolate;fill:url(#linear-gradient-33);stroke-width:1" />
    <path
       class="cls-47"
       d="m 8.0798302,4.120159 c 0,-0.095174 -0.07153,-0.1308594 -0.0596,-0.2022374 A 0.25036201,0.2498223 0 0 0 7.9129282,3.7156842 C 7.8294772,3.6562017 7.8533192,3.4777583 7.8175512,3.4063804 7.7817832,3.3350077 7.6744872,3.275522 7.6744872,3.227936 a 0.33381601,0.3330964 0 0 0 0,-0.1903409 0.42919201,0.4282668 0 0 0 -0.1788287,-0.118963 c 0,0 -0.059605,0 -0.083453,0 -0.023837,0 0,-0.1070664 -0.071534,-0.1665479 -0.071537,-0.059483 0,0 -0.095377,-0.083273 -0.095377,-0.083273 0,-0.1070664 -0.059609,-0.1665479 a 0.27420601,0.2736149 0 0 0 -0.1311419,-0.1308594 0.39342601,0.3925779 0 0 1 -0.1549858,0 V 2.28813 A 0.32189401,0.32120009 0 0 0 6.6015062,2.1215811 h -0.095377 c 0,0 0,0 -0.083451,-0.071373 -0.08345,-0.071383 -0.202674,-0.1903409 -0.321894,-0.1427559 -0.11922,0.047582 0,0 -0.071536,0 -0.071536,0 -0.083451,0 -0.11922,-0.083273 a 0.22651801,0.22602969 0 0 0 -0.2265181,-0.059483 0.143064,0.1427556 0 0 1 -0.095377,0 0.154986,0.1546519 0 0 1 -0.1072924,-0.059482 0.25036201,0.2498223 0 0 0 -0.2742068,0 c 0,0 -0.095377,0.071373 -0.1430638,0.059482 -0.047683,-0.011901 -0.059609,0 -0.095377,0 a 0.39342601,0.3925779 0 0 0 -0.476881,0.071373 L 4.3124824,1.8122783 a 0.143064,0.1427556 0 0 1 -0.11922,0 0.36958201,0.3687853 0 0 0 -0.35766,0 c 0,0 0,0.059482 -0.05961,0.071373 a 0.166908,0.16654819 0 0 1 -0.1072925,0 0.38150401,0.38068159 0 0 0 -0.4291913,0.1308594 0.143064,0.1427556 0 0 1 -0.059609,0.083273 c 0,0 -0.071536,0 -0.1072924,0 a 0.44111401,0.44016309 0 0 0 -0.321893,0.190341 c 0,0 0,0.071373 0,0.083273 0,0.011901 -0.071536,0 -0.095377,0 a 0.26228401,0.26171859 0 0 0 -0.1788306,0.1546524 0.78685202,0.78515579 0 0 1 0,0.1784444 c 0,0.071373 -0.1430637,0.1070665 -0.1907513,0.1784444 a 1.335264,1.3323856 0 0 1 0,0.1546514 c 0,0.083273 -0.1788306,0.1070675 -0.2145962,0.2022374 -0.035768,0.095174 0,0.1070665 0,0.142756 0,0.035692 -0.1549857,0.095174 -0.1549857,0.2141328 a 0.63186601,0.63050389 0 0 1 0,0.1546525 0.22651801,0.22602969 0 0 1 -0.095377,0.1189629 0.66763202,0.66619279 0 0 0 -0.3695819,0.3212004 3.3143161,3.3071714 0 0 1 6.6286307,0 z"
       id="path29709"
       style="isolation:isolate;fill:url(#linear-gradient-34);stroke-width:1" />
    <path
       class="cls-48"
       d="m 3.1441227,1.8122762 a 0.63186601,0.63050389 0 0 0 0.4291925,-0.2617178 0.57225601,0.57102239 0 0 0 0,-0.3568899 A 1.1922,1.18963 0 0 0 2.7983846,0.33713498 1.6094701,1.6060005 0 0 0 1.1412264,0.68212833 1.6333141,1.6297931 0 0 0 0.66434637,2.264336 1.096824,1.0944596 0 0 0 1.6657952,3.1208695 0.47688001,0.47585199 0 0 0 2.2142065,2.7044993 0.65571002,0.65429649 0 0 1 2.4168808,2.0502031 0.81069602,0.80894839 0 0 1 3.1441227,1.8122762 Z"
       id="path29711"
       style="isolation:isolate;fill:url(#linear-gradient-35);stroke-width:1" />
    <path
       class="cls-49"
       d="M 3.5613933,1.5148689 A 0.27420601,0.2736149 0 0 1 3.5017838,1.5981423 0.25036201,0.2498223 0 0 0 3.3944914,1.3840084 0.25036201,0.2498223 0 0 0 3.1322076,1.0984975 0.28612801,0.28551119 0 0 0 2.7507038,0.81298671 0.35766001,0.35688899 0 0 0 2.4049657,0.62264581 0.63186601,0.63050389 0 0 0 2.011539,0.80109021 0.50072401,0.49964459 0 0 0 1.5108152,1.0033276 a 0.11922,0.118963 0 0 1 0,0.059483 h -0.095377 a 0.34573801,0.34499269 0 0 0 -0.2145951,0.3449923 0.23844001,0.237926 0 0 0 -0.20267433,0.214134 0.73916402,0.73757059 0 0 0 0,0.3211993 0.30997201,0.3093038 0 0 0 0,0.4401632 A 0.35766001,0.35688899 0 0 0 1.1889213,2.7639812 0.25036201,0.2498223 0 0 0 1.2723723,2.9781141 1.096824,1.0944596 0 0 1 0.65242797,2.216751 1.6452361,1.6416893 0 0 1 2.7864661,0.28955006 1.2875761,1.2848003 0 0 1 3.5613956,1.1460836 c 0,0 0.083451,0.2498223 1e-6,0.3687853 z"
       id="path29713"
       style="isolation:isolate;fill:url(#linear-gradient-36);stroke-width:1" />
    <path
       class="cls-50"
       d="m 6.2796084,1.7171063 a 0.63186601,0.63050389 0 0 1 -0.4411131,-0.2379259 0.64378802,0.64240019 0 0 1 0,-0.3568888 A 1.2875761,1.2848003 0 0 1 6.577659,0.23006855 1.597548,1.5941042 0 0 1 8.2586612,0.51558044 1.6333141,1.6297931 0 0 1 8.7951502,2.0739951 1.061058,1.0587707 0 0 1 7.8294692,2.9543216 0.46495801,0.46395569 0 0 1 7.2572122,2.5736398 0.63186601,0.63050389 0 0 0 7.0306953,1.9193437 0.81069602,0.80894839 0 0 0 6.2796084,1.7171063 Z"
       id="path29715"
       style="isolation:isolate;fill:url(#linear-gradient-37);stroke-width:1" />
    <path
       class="cls-51"
       d="m 5.8384953,1.4791804 c 0,0 0,0 0,0.071383 a 0.25036201,0.2498223 0 0 1 0.1072924,-0.2141336 0.26228401,0.26171859 0 0 1 0.250363,-0.3093039 0.26228401,0.26171859 0 0 1 0.1072924,-0.24982234 0.27420601,0.2736149 0 0 1 0.2742057,0 0.33381601,0.3330964 0 0 1 0.3338162,-0.24982238 0.64378802,0.64240019 0 0 1 0.5007234,0.0951742 0.52456801,0.52343719 0 0 1 0.5126468,0.17844441 0.25036201,0.2498223 0 0 0 0,0.0713727 h 0.09538 a 0.36958201,0.3687853 0 0 1 0.226518,0.33309581 0.26228401,0.26171859 0 0 1 0.214596,0.2141339 0.54841201,0.5472298 0 0 1 0,0.3093039 0.30997201,0.3093038 0 0 1 0,0.4401632 0.33381601,0.3330964 0 0 1 -0.166908,0.3925772 0.23844001,0.237926 0 0 1 -0.08345,0.2141339 1.07298,1.0706669 0 0 0 0.5961,-0.7732601 A 1.657158,1.6535856 0 0 0 6.5895752,0.15869375 1.2875761,1.2848003 0 0 0 5.8504115,1.0509168 0.54841201,0.5472298 0 0 0 5.838485,1.4791836 Z"
       id="path29717"
       style="isolation:isolate;fill:url(#linear-gradient-38);stroke-width:1" />
    <path
       class="cls-52"
       d="M 4.8251246,7.5700863 A 2.8135921,2.8075267 0 0 0 6.8876303,6.7016562 1.3948741,1.3918671 0 0 0 7.0903047,4.7982482 c -0.2980494,-0.2617189 -0.6557094,-0.1903409 -1.0968238,0 A 3.7315861,3.7235419 0 0 1 5.1708628,5.083759 H 4.3840103 a 4.5422821,4.5324902 0 0 1 -0.83454,-0.2617189 c -0.4411132,-0.1784444 -0.8106951,-0.2379258 -1.0968238,0 a 1.4067961,1.4037634 0 0 0 0.2742056,1.8915115 2.777826,2.7718379 0 0 0 2.0982725,0.7851567 z"
       id="path29719"
       style="isolation:isolate;fill:url(#linear-gradient-39);stroke-width:1" />
    <path
       class="cls-22"
       d="M 5.5881322,5.9878775 A 1.084902,1.0825632 0 0 1 4.8012809,6.3447663 1.07298,1.0706669 0 0 1 4.0025065,6.023567"
       id="path29721"
       style="isolation:isolate;stroke-width:1" />
    <path
       class="cls-53"
       d="m 3.1441227,3.0019066 c 0.1549857,0 0.3457382,-0.1427559 0.2980494,-0.2736154 -0.047683,-0.1308584 -0.3218931,-0.095174 -0.453035,0 -0.1311419,0.095174 -0.2861287,0.1784455 -0.262285,0.2736154 0.023842,0.095174 0.2145963,0.083273 0.4172706,0 z"
       id="path29723"
       style="isolation:isolate;fill:#694101;fill-opacity:1;stroke-width:1" />
    <path
       class="cls-53"
       d="m 6.3272972,3.0019066 c -0.1549869,0 -0.3457382,-0.1189629 -0.3218944,-0.2498224 0.023842,-0.1308594 0.3218944,-0.1189629 0.4649581,-0.059483 0.1430638,0.059483 0.2980494,0.1665479 0.2742057,0.2617189 -0.023842,0.095174 -0.2145963,0.047582 -0.4172694,0.047582 z"
       id="path29725"
       style="isolation:isolate;fill:#694101;fill-opacity:1;stroke-width:1" />
    <path
       class="cls-54"
       d="m 7.1120328,5.713416 a 0.131142,0.1308593 0 0 0 0,-0.095174 0.190752,0.1903408 0 0 0 0,-0.2022374 c 0,0 0,0 0,0 0,0 0,-0.071383 0,-0.1070665 a 0.131142,0.1308593 0 0 0 0,-0.1070664 v 0 a 0.17883,0.1784445 0 0 0 -0.059605,-0.142756 0.166908,0.16654819 0 0 0 -0.131142,0 0.202674,0.20223709 0 0 0 -0.1788295,-0.095174 0.154986,0.1546519 0 0 0 -0.1072925,0 0.17883,0.1784445 0 0 0 -0.071536,0.059483 4.6257361,4.6157643 0 0 0 -0.7987744,0.2736154 0.28612801,0.28551119 0 0 0 -0.3218931,0.1546514 0.39342601,0.3925779 0 0 0 -0.4768801,0.1784454 0.51264601,0.51154089 0 0 0 -0.4530362,0 0.32189401,0.32120009 0 0 0 -0.3815038,-0.083273 0.29805001,0.2974075 0 0 0 -0.2742068,-0.1427559 0.26228401,0.26171859 0 0 1 -0.095377,0 v 0 A 0.27420601,0.2736149 0 0 0 3.4162126,5.2970458 0.25036201,0.2498223 0 0 0 3.0704745,5.1780828 0.27420601,0.2736149 0 0 0 2.7128144,5.0591199 v 0 a 0.23844001,0.237926 0 0 0 -0.2026743,0 0.21459601,0.2141334 0 0 0 -0.1072925,0.1665479 0.17883,0.1784445 0 0 0 -0.11922,0.083273 0.154986,0.1546519 0 0 0 0,0.1427549 0.11922,0.118963 0 0 0 0,0.1784454 0.190752,0.1903408 0 0 0 0,0.083274 0.96568202,0.96360029 0 0 1 0.2503619,-0.8684301 c 0.2861287,-0.2855108 0.6557106,-0.2260294 1.096825,0 a 3.7911961,3.7830233 0 0 0 0.83454,0.2617189 H 5.2522058 A 3.7315861,3.7235419 0 0 0 6.074824,4.821193 c 0.4291925,-0.190341 0.7987743,-0.2617189 1.0968241,0 a 1.037214,1.0349781 0 0 1 -0.059605,0.892222 z"
       id="path29727"
       style="isolation:isolate;fill:url(#linear-gradient-40);stroke-width:1" />
    <path
       d="M 4.789359,5.5001293 A 0.89415002,0.89222249 0 0 0 5.3496922,5.3216849 C 5.4927571,5.2265107 5.6835084,5.083759 5.6596647,4.9053146 5.6358232,4.7268702 5.1231752,4.8101404 4.7774371,4.8220412 4.431699,4.8339419 3.9428971,4.6079083 3.8952084,4.9410041 3.8475254,5.274101 4.074039,5.2622045 4.2171027,5.345479 A 1.025292,1.0230818 0 0 0 4.789359,5.5001293 Z"
       id="path29729"
       style="isolation:isolate;stroke-width:1" />
    <path
       class="cls-56"
       d="M 3.1441227,1.8122762 A 1.1922,1.18963 0 0 0 2.7387752,1.3959059 0.76300802,0.76136318 0 0 0 1.9042352,1.6100398 0.73916402,0.73757059 0 0 0 1.7730921,2.4189884 c 0.095377,0.1903399 0.4411144,0.2855109 0.4411144,0.2855109 A 0.96568202,0.96360029 0 0 1 2.5003352,2.1334765 1.1922,1.18963 0 0 1 3.1441227,1.8122762 Z"
       id="path29733"
       style="isolation:isolate;fill:#694101;fill-opacity:1;stroke-width:1" />
    <path
       class="cls-56"
       d="M 6.2796084,1.7171063 A 1.1922,1.18963 0 0 1 6.6611122,1.276943 0.78685202,0.78515579 0 0 1 7.5075751,1.4553874 0.76300802,0.76136318 0 0 1 7.6744832,2.2762325 C 7.5791059,2.4546769 7.2333685,2.5736398 7.2333685,2.5736398 A 0.96568202,0.96360029 0 0 0 6.9233972,2.0145136 1.049136,1.0468744 0 0 0 6.2796084,1.7171063 Z"
       id="path29735"
       style="isolation:isolate;fill:#694101;fill-opacity:1;stroke-width:1" />
    <path
       class="cls-58"
       d="m 7.0187722,12.364294 a 17.739937,17.701694 0 0 1 1.323343,-2.224607 C 8.5805552,9.6400422 9.474705,9.6281457 9.975429,9.8303831 c 0.739163,0.2855109 0.977603,1.7011709 0.834539,2.5696009 -0.143063,0.86843 -1.585626,1.570311 -1.585626,1.570311 0,0 -0.8106958,-0.606711 -0.8822268,-1.106356 a 2.2174921,2.2127117 0 0 1 0,-0.309304 c 0,0 -1.2518105,0.344993 -1.323343,-0.190341 z"
       id="path29745"
       style="isolation:isolate;fill:url(#linear-gradient-41);stroke-width:1" />
    <path
       class="cls-59"
       d="m 8.8905272,13.708576 a 1.597548,1.5941042 0 0 1 -0.53649,-0.808948 c 0,-0.166549 0,-0.3212 0,-0.3212 0,0 -1.1922,0.380682 -1.31142,-0.154652 a 20.648904,20.604391 0 0 1 1.287575,-2.284089 c 0,0.154651 -0.286128,1.046874 0,0.987392 a 1.2756541,1.272904 0 0 0 0.572257,-0.487749 c 0,0.178446 -0.429192,1.653586 0.6557098,1.903409 0.631866,0.130859 0.02384,0.654297 -0.6676318,1.165837 z"
       id="path29747"
       style="isolation:isolate;fill:url(#linear-gradient-42);stroke-width:1" />
    <path
       class="cls-60"
       d="m 4.0859609,13.339791 a 1.4067961,1.4037634 0 0 0 -1.442562,1.261008 c 0,0.761363 0.6318657,1.475141 1.8479095,1.332385 1.2160438,-0.142756 1.6452363,-0.571022 1.7048469,-1.118252 A 1.1922,1.18963 0 0 0 5.4808353,13.50634 3.3023941,3.2952751 0 0 0 4.0859609,13.339791 Z"
       id="path29751"
       style="isolation:isolate;fill:url(#linear-gradient-43);stroke-width:1" />
    <path
       class="cls-56"
       d="m 4.5866846,13.910813 a 0.96568202,0.96360029 0 0 0 -0.9776037,0.856534 c 0,0.523438 0.4291913,1.011186 1.1922,0.904118 0.7630075,-0.107066 1.1206675,-0.38068 1.1922,-0.761362 A 0.82261802,0.82084468 0 0 0 5.4927571,14.029776 2.1221161,2.1175414 0 0 0 4.5866846,13.910813 Z"
       id="path29755"
       style="isolation:isolate;fill:#e9b96e;fill-opacity:1;stroke-width:1" />
    <path
       class="cls-61"
       d="M 9.498549,14.184429 A 1.025292,1.0230818 0 0 1 8.7474632,12.756872 2.3844001,2.37926 0 0 1 10.738437,11.174665 c 0.77493,-0.05948 1.061058,0.297407 1.1922,0.547229 a 1.049136,1.0468744 0 0 1 0,0.808949 c -0.11922,0.321199 -1.96713,0.606711 -1.96713,0.606711"
       id="path29757"
       style="isolation:isolate;fill:url(#linear-gradient-44);stroke-width:1" />
    <path
       class="cls-62"
       d="m 11.108019,13.589613 c 0.524567,-0.356889 1.001448,-1.011185 0.822618,-1.487037 -0.178831,-0.475853 -0.858384,-0.594815 -1.764456,0.107067 -0.906073,0.701881 -1.1921998,1.189629 -1.049136,1.534622 0.143063,0.344993 0.381504,0.559127 0.882228,0.440164 a 3.6719761,3.6640603 0 0 0 1.108746,-0.594816 z"
       id="path29759"
       style="isolation:isolate;fill:url(#linear-gradient-45);stroke-width:1" />
    <path
       class="cls-63"
       d="m 11.108019,13.589613 c 0.524567,-0.356889 1.001448,-1.011185 0.822618,-1.487037 -0.178831,-0.475853 -0.858384,-0.594815 -1.764456,0.107067 -0.906073,0.701881 -1.1921998,1.189629 -1.049136,1.534622 0.143063,0.344993 0.381504,0.559127 0.882228,0.440164 a 3.6719761,3.6640603 0 0 0 1.108746,-0.594816 z"
       id="path29761"
       style="isolation:isolate;fill:url(#linear-gradient-46);stroke-width:1" />
    <path
       class="cls-56"
       d="m 10.988799,13.708576 c 0.381504,-0.273614 0.739164,-0.761363 0.596101,-1.106356 -0.143064,-0.344992 -0.619945,-0.440162 -1.299499,0.07138 -0.679554,0.511542 -0.83454,0.86843 -0.77493,1.189631 0.05961,0.3212 0.286128,0.41637 0.65571,0.3212 a 2.897046,2.8908009 0 0 0 0.822618,-0.475853 z"
       id="path29765"
       style="isolation:isolate;fill:#c69d5d;fill-opacity:1;stroke-width:1" />
    <g
       id="g48825"
       transform="matrix(1.0718322,0,0,1,-3.4101688,0)"
       style="stroke-width:0.96591">
      <ellipse
         cx="6.5629792"
         cy="4.0023751"
         id="circle29737"
         style="isolation:isolate;stroke-width:0.96591"
         rx="0.45589194"
         ry="0.48788249" />
      <ellipse
         style="color:#000000;overflow:visible;opacity:1;fill:#ffffff;fill-opacity:1;stroke:none;stroke-width:1.20739;stroke-linecap:round;stroke-linejoin:round;stop-color:#000000"
         id="path43008"
         cx="6.3420668"
         cy="3.7941916"
         rx="0.16890004"
         ry="0.15924862" />
    </g>
    <ellipse
       style="color:#000000;overflow:visible;opacity:1;fill:#ffffff;fill-opacity:1;stroke:none;stroke-width:1.25;stroke-linecap:round;stroke-linejoin:round;stop-color:#000000"
       id="ellipse43688"
       cx="4.0811281"
       cy="4.9168754"
       rx="0.15008323"
       ry="0.13202351" />
    <g
       id="g48821"
       transform="matrix(1.0718322,0,0,1,-3.763111,-0.04541913)"
       style="stroke-width:0.96591">
      <ellipse
         cx="9.2028494"
         cy="4.0539627"
         id="circle29741"
         style="isolation:isolate;stroke-width:0.96591"
         rx="0.45616889"
         ry="0.48788249" />
      <circle
         style="color:#000000;overflow:visible;opacity:1;fill:#ffffff;fill-opacity:1;stroke:none;stroke-width:1.20739;stroke-linecap:round;stroke-linejoin:round;stop-color:#000000"
         id="circle43686"
         cx="8.9723577"
         cy="3.8350694"
         r="0.14959718" />
    </g>
    <path
       style="color:#000000;display:inline;overflow:visible;visibility:visible;fill:#eeeeec;fill-opacity:1;fill-rule:evenodd;stroke:#2e3436;stroke-width:1px;stroke-linecap:butt;stroke-linejoin:miter;stroke-miterlimit:4;stroke-dasharray:none;stroke-dashoffset:0;stroke-opacity:1;marker:none;marker-start:none;marker-mid:none;marker-end:none"
       d="m 11.485394,9.5021576 0.01311,1.9840264 -1.9863471,0.024 -0.02165,1.992027 2.0267601,0.01606 2e-6,1.975913 1.990451,-5e-6 -0.0036,-1.991997 1.99717,3e-5 2e-6,-1.99845 -2.006832,0.008 0.0069,-2.0175766 z"
       id="rect1880"
       sodipodi:nodetypes="ccccccccccccc" />
  </g>
</svg>
